<svg preserveAspectRatio="none" width="100%" height="100%" overflow="visible" style="display: block;" viewBox="0 0 20 20" fill="none" xmlns="http://www.w3.org/2000/svg">
<g id="Icon" clip-path="url(#clip0_14_1716)">
<path id="Vector" d="M1.66615 7.91419C1.66617 6.98714 1.94739 6.08191 2.47267 5.31805C2.99796 4.55419 3.7426 3.96763 4.60824 3.63585C5.47388 3.30407 6.4198 3.24268 7.32107 3.45978C8.22233 3.67687 9.03654 4.16225 9.65616 4.85181C9.6998 4.89847 9.75257 4.93567 9.81118 4.96111C9.86979 4.98654 9.933 4.99966 9.99689 4.99966C10.0608 4.99966 10.124 4.98654 10.1826 4.96111C10.2412 4.93567 10.294 4.89847 10.3376 4.85181C10.9553 4.15777 11.7697 3.66831 12.6724 3.44858C13.5751 3.22884 14.5234 3.28925 15.3909 3.62176C16.2585 3.95427 17.0042 4.54311 17.5288 5.30991C18.0534 6.07672 18.3321 6.98511 18.3276 7.91419C18.3276 9.82193 17.078 11.2465 15.8284 12.4961L11.2532 16.9222C11.0979 17.1005 10.9065 17.2437 10.6917 17.3423C10.4769 17.441 10.2435 17.4927 10.0071 17.4942C9.77074 17.4957 9.53674 17.4469 9.32067 17.351C9.1046 17.2551 8.91142 17.1143 8.75394 16.938L4.16537 12.4961C2.91576 11.2465 1.66615 9.83026 1.66615 7.91419Z" stroke="var(--stroke-0, #4A4A4A)" stroke-width="1.66615" stroke-linecap="round" stroke-linejoin="round"/>
</g>
<defs>
<clipPath id="clip0_14_1716">
<rect width="19.9938" height="19.9938" fill="white"/>
</clipPath>
</defs>
</svg>
