<svg preserveAspectRatio="none" width="100%" height="100%" overflow="visible" style="display: block;" viewBox="0 0 20 20" fill="none" xmlns="http://www.w3.org/2000/svg">
<g id="Icon">
<path id="Vector" d="M14.8287 15.995L13.3292 9.16382L16.2449 6.24806C17.4946 4.99844 17.9111 3.3323 17.4946 2.49922C16.6615 2.08269 14.9953 2.49922 13.7457 3.74883L10.83 6.66459L3.99876 5.16506C3.58222 5.08175 3.24899 5.24837 3.08237 5.5816L2.83245 5.99813C2.66584 6.41467 2.74914 6.83121 3.08237 7.08113L7.49767 9.99689L5.83152 12.4961H3.3323L2.49922 13.3292L4.99844 14.9953L6.66459 17.4946L7.49767 16.6615V14.1623L9.99689 12.4961L12.9126 16.9114C13.1626 17.2446 13.5791 17.3279 13.9956 17.1613L14.4122 16.9947C14.7454 16.7448 14.912 16.4116 14.8287 15.995Z" stroke="var(--stroke-0, #4A4A4A)" stroke-width="1.66615" stroke-linecap="round" stroke-linejoin="round"/>
</g>
</svg>
