<svg preserveAspectRatio="none" width="100%" height="100%" overflow="visible" style="display: block;" viewBox="0 0 20 20" fill="none" xmlns="http://www.w3.org/2000/svg">
<g id="Icon" clip-path="url(#clip0_14_1759)">
<path id="Vector" d="M3.3323 11.663C3.17465 11.6636 3.02009 11.6194 2.88656 11.5356C2.75304 11.4518 2.64604 11.3318 2.57799 11.1896C2.50994 11.0474 2.48364 10.8888 2.50214 10.7322C2.52064 10.5757 2.58318 10.4276 2.6825 10.3051L10.9299 1.80778C10.9918 1.73637 11.0761 1.68811 11.169 1.67093C11.2619 1.65375 11.3579 1.66867 11.4412 1.71323C11.5245 1.75779 11.5902 1.82935 11.6275 1.91617C11.6648 2.00298 11.6714 2.0999 11.6464 2.19099L10.0469 7.2061C9.99971 7.33233 9.98387 7.46812 10.0007 7.60182C10.0176 7.73551 10.0666 7.86313 10.1436 7.97372C10.2206 8.0843 10.3233 8.17456 10.4428 8.23675C10.5624 8.29893 10.6952 8.33119 10.83 8.33075H16.6615C16.8191 8.33021 16.9737 8.37442 17.1072 8.45823C17.2407 8.54204 17.3477 8.66202 17.4158 8.80422C17.4838 8.94643 17.5101 9.10502 17.4916 9.26158C17.4731 9.41814 17.4106 9.56623 17.3113 9.68866L9.06385 18.186C9.00198 18.2574 8.91768 18.3057 8.82477 18.3229C8.73186 18.34 8.63588 18.3251 8.55256 18.2806C8.46925 18.236 8.40356 18.1644 8.36628 18.0776C8.329 17.9908 8.32235 17.8939 8.3474 17.8028L9.9469 12.7877C9.99407 12.6615 10.0099 12.5257 9.99306 12.392C9.97622 12.2583 9.92719 12.1307 9.85019 12.0201C9.77319 11.9095 9.67051 11.8192 9.55097 11.757C9.43142 11.6949 9.29857 11.6626 9.16382 11.663H3.3323Z" stroke="var(--stroke-0, #4A4A4A)" stroke-width="1.66615" stroke-linecap="round" stroke-linejoin="round"/>
</g>
<defs>
<clipPath id="clip0_14_1759">
<rect width="19.9938" height="19.9938" fill="white"/>
</clipPath>
</defs>
</svg>
