<svg preserveAspectRatio="none" width="100%" height="100%" overflow="visible" style="display: block;" viewBox="0 0 20 20" fill="none" xmlns="http://www.w3.org/2000/svg">
<g id="Icon" clip-path="url(#clip0_13_1684)">
<path id="Vector" d="M8.33073 4.16537V2.49922" stroke="var(--stroke-0, #4A4A4A)" stroke-width="1.66615" stroke-linecap="round" stroke-linejoin="round"/>
<path id="Vector_2" d="M11.663 4.16537V2.49922" stroke="var(--stroke-0, #4A4A4A)" stroke-width="1.66615" stroke-linecap="round" stroke-linejoin="round"/>
<path id="Vector_3" d="M12.4961 17.4946V14.9953C12.4961 14.3325 12.2328 13.6968 11.7641 13.2281C11.2954 12.7594 10.6597 12.4961 9.99688 12.4961C9.33405 12.4961 8.69836 12.7594 8.22967 13.2281C7.76097 13.6968 7.49766 14.3325 7.49766 14.9953V17.4946" stroke="var(--stroke-0, #4A4A4A)" stroke-width="1.66615" stroke-linecap="round" stroke-linejoin="round"/>
<path id="Vector_4" d="M14.9953 2.49922V9.16382" stroke="var(--stroke-0, #4A4A4A)" stroke-width="1.66615" stroke-linecap="round" stroke-linejoin="round"/>
<path id="Vector_5" d="M14.9953 4.16537H4.99844" stroke="var(--stroke-0, #4A4A4A)" stroke-width="1.66615" stroke-linecap="round" stroke-linejoin="round"/>
<path id="Vector_6" d="M18.3276 9.16381H1.66615" stroke="var(--stroke-0, #4A4A4A)" stroke-width="1.66615" stroke-linecap="round" stroke-linejoin="round"/>
<path id="Vector_7" d="M18.3276 7.49767V15.8284C18.3276 16.2703 18.1521 16.6941 17.8396 17.0066C17.5272 17.319 17.1034 17.4946 16.6615 17.4946H3.3323C2.89041 17.4946 2.46662 17.319 2.15415 17.0066C1.84169 16.6941 1.66615 16.2703 1.66615 15.8284V7.49767" stroke="var(--stroke-0, #4A4A4A)" stroke-width="1.66615" stroke-linecap="round" stroke-linejoin="round"/>
<path id="Vector_8" d="M4.99844 2.49922V9.16382" stroke="var(--stroke-0, #4A4A4A)" stroke-width="1.66615" stroke-linecap="round" stroke-linejoin="round"/>
</g>
<defs>
<clipPath id="clip0_13_1684">
<rect width="19.9938" height="19.9938" fill="white"/>
</clipPath>
</defs>
</svg>
