<svg preserveAspectRatio="none" width="100%" height="100%" overflow="visible" style="display: block;" viewBox="0 0 20 20" fill="none" xmlns="http://www.w3.org/2000/svg">
<g id="Icon">
<path id="Vector" d="M17.4821 10.4017C17.404 11.8481 16.9086 13.2408 16.0559 14.4117C15.2032 15.5825 14.0295 16.4812 12.6769 16.9993C11.3243 17.5173 9.85053 17.6325 8.43385 17.3309C7.01716 17.0292 5.71818 16.3237 4.69392 15.2995C3.66966 14.2754 2.96398 12.9765 2.66218 11.5598C2.36038 10.1431 2.47539 8.6694 2.99329 7.31671C3.5112 5.96403 4.40984 4.79031 5.58057 3.93745C6.75131 3.08459 8.14401 2.58909 9.59035 2.51086C9.92774 2.49253 10.1044 2.89408 9.92524 3.17982C9.32617 4.13832 9.06965 5.27156 9.19755 6.39461C9.32544 7.51766 9.83021 8.56421 10.6295 9.36346C11.4287 10.1627 12.4753 10.6675 13.5983 10.7954C14.7214 10.9233 15.8546 10.6667 16.8131 10.0677C17.0997 9.88857 17.5004 10.0643 17.4821 10.4017Z" stroke="var(--stroke-0, #4A4A4A)" stroke-width="1.66615" stroke-linecap="round" stroke-linejoin="round"/>
</g>
</svg>
