<svg preserveAspectRatio="none" width="100%" height="100%" overflow="visible" style="display: block;" viewBox="0 0 32 32" fill="none" xmlns="http://www.w3.org/2000/svg">
<g id="Icon">
<path id="Vector" d="M14.6848 3.75083C14.7419 3.44506 14.9041 3.1689 15.1434 2.97017C15.3827 2.77143 15.684 2.66264 15.995 2.66264C16.3061 2.66264 16.6073 2.77143 16.8466 2.97017C17.0859 3.1689 17.2482 3.44506 17.3053 3.75083L18.7062 11.1592C18.8057 11.6859 19.0616 12.1704 19.4407 12.5494C19.8197 12.9284 20.3041 13.1844 20.8308 13.2839L28.2392 14.6848C28.545 14.7419 28.8211 14.9041 29.0199 15.1434C29.2186 15.3827 29.3274 15.684 29.3274 15.995C29.3274 16.3061 29.2186 16.6073 29.0199 16.8466C28.8211 17.0859 28.545 17.2482 28.2392 17.3053L20.8308 18.7062C20.3041 18.8057 19.8197 19.0616 19.4407 19.4407C19.0616 19.8197 18.8057 20.3041 18.7062 20.8308L17.3053 28.2392C17.2482 28.545 17.0859 28.8211 16.8466 29.0199C16.6073 29.2186 16.3061 29.3274 15.995 29.3274C15.684 29.3274 15.3827 29.2186 15.1434 29.0199C14.9041 28.8211 14.7419 28.545 14.6848 28.2392L13.2839 20.8308C13.1844 20.3041 12.9284 19.8197 12.5494 19.4407C12.1704 19.0616 11.6859 18.8057 11.1592 18.7062L3.75083 17.3053C3.44506 17.2482 3.1689 17.0859 2.97017 16.8466C2.77143 16.6073 2.66264 16.3061 2.66264 15.995C2.66264 15.684 2.77143 15.3827 2.97017 15.1434C3.1689 14.9041 3.44506 14.7419 3.75083 14.6848L11.1592 13.2839C11.6859 13.1844 12.1704 12.9284 12.5494 12.5494C12.9284 12.1704 13.1844 11.6859 13.2839 11.1592L14.6848 3.75083Z" stroke="var(--stroke-0, #C9A0A0)" stroke-width="2.66584" stroke-linecap="round" stroke-linejoin="round"/>
<path id="Vector_2" d="M26.6584 2.66584V7.99751" stroke="var(--stroke-0, #C9A0A0)" stroke-width="2.66584" stroke-linecap="round" stroke-linejoin="round"/>
<path id="Vector_3" d="M29.3242 5.33167H23.9925" stroke="var(--stroke-0, #C9A0A0)" stroke-width="2.66584" stroke-linecap="round" stroke-linejoin="round"/>
<path id="Vector_4" d="M5.33167 29.3242C6.80398 29.3242 7.99751 28.1307 7.99751 26.6584C7.99751 25.1861 6.80398 23.9925 5.33167 23.9925C3.85937 23.9925 2.66584 25.1861 2.66584 26.6584C2.66584 28.1307 3.85937 29.3242 5.33167 29.3242Z" stroke="var(--stroke-0, #C9A0A0)" stroke-width="2.66584" stroke-linecap="round" stroke-linejoin="round"/>
</g>
</svg>
