<svg preserveAspectRatio="none" width="100%" height="100%" overflow="visible" style="display: block;" viewBox="0 0 20 20" fill="none" xmlns="http://www.w3.org/2000/svg">
<g id="Icon" clip-path="url(#clip0_14_1751)">
<path id="Vector" d="M8.33074 1.66615V8.33074L10.83 5.83152L13.3292 8.33074V1.66615" stroke="var(--stroke-0, #4A4A4A)" stroke-width="1.66615" stroke-linecap="round" stroke-linejoin="round"/>
<path id="Vector_2" d="M3.3323 16.2449V3.74883C3.3323 3.19647 3.55172 2.66673 3.9423 2.27615C4.33288 1.88557 4.86262 1.66615 5.41498 1.66615H15.8284C16.0494 1.66615 16.2612 1.75392 16.4175 1.91015C16.5737 2.06638 16.6615 2.27828 16.6615 2.49922V17.4946C16.6615 17.7155 16.5737 17.9274 16.4175 18.0836C16.2612 18.2399 16.0494 18.3276 15.8284 18.3276H5.41498C4.86262 18.3276 4.33288 18.1082 3.9423 17.7176C3.55172 17.327 3.3323 16.7973 3.3323 16.2449ZM3.3323 16.2449C3.3323 15.6926 3.55172 15.1628 3.9423 14.7723C4.33288 14.3817 4.86262 14.1623 5.41498 14.1623H16.6615" stroke="var(--stroke-0, #4A4A4A)" stroke-width="1.66615" stroke-linecap="round" stroke-linejoin="round"/>
</g>
<defs>
<clipPath id="clip0_14_1751">
<rect width="19.9938" height="19.9938" fill="white"/>
</clipPath>
</defs>
</svg>
