<svg preserveAspectRatio="none" width="100%" height="100%" overflow="visible" style="display: block;" viewBox="0 0 20 20" fill="none" xmlns="http://www.w3.org/2000/svg">
<g id="Icon" clip-path="url(#clip0_13_1649)">
<path id="Vector" d="M16.1733 12.0079C17.4946 10.6867 18.3276 9.58036 18.3276 7.91421C18.3276 6.98717 18.0464 6.08193 17.5211 5.31807C16.9958 4.55421 16.2512 3.96765 15.3855 3.63587C14.5199 3.30409 13.574 3.2427 12.6727 3.4598C11.7714 3.6769 10.9572 4.16228 10.3376 4.85183M16.1733 12.0079C16.009 12.1723 15.8139 12.3026 15.5992 12.3916C15.3845 12.4805 15.1544 12.5263 14.922 12.5263C14.6896 12.5263 14.4595 12.4805 14.2448 12.3916C14.0301 12.3026 13.8351 12.1723 13.6707 12.0079C13.8486 12.1688 13.992 12.3642 14.0921 12.5821C14.1921 12.8001 14.2468 13.0362 14.2529 13.2759C14.2589 13.5157 14.2161 13.7542 14.1271 13.9769C14.0381 14.1997 13.9048 14.402 13.7352 14.5716C13.5656 14.7412 13.3632 14.8745 13.1405 14.9635C12.9178 15.0525 12.6793 15.0953 12.4395 15.0893C12.1997 15.0832 11.9637 15.0285 11.7457 14.9285C11.5277 14.8284 11.3324 14.6851 11.1715 14.5072C11.336 14.671 11.4665 14.8656 11.5557 15.0799C11.6449 15.2942 11.6909 15.524 11.6913 15.7561C11.6916 15.9882 11.6461 16.2181 11.5575 16.4326C11.4689 16.6472 11.3389 16.8421 11.1749 17.0064C11.0166 17.1647 10.828 17.2896 10.6203 17.3734C10.4127 17.4572 10.1903 17.4983 9.96644 17.4943C9.74257 17.4903 9.52181 17.4411 9.31735 17.3498C9.11288 17.2586 8.92892 17.127 8.77644 16.9631L4.16537 12.4961C2.91576 11.2465 1.66615 9.83028 1.66615 7.91421C1.66633 6.98724 1.94768 6.08212 2.47303 5.31839C2.99838 4.55466 3.74302 3.96823 4.60863 3.63656C5.47423 3.30488 6.42008 3.24356 7.32127 3.46068C8.22245 3.6778 9.03659 4.16316 9.65616 4.85266C9.74879 4.93875 9.8706 4.98653 9.99705 4.98637C10.1235 4.98622 10.2452 4.93814 10.3376 4.85183M16.1733 12.0079C16.4857 11.6955 16.6611 11.2718 16.6611 10.83C16.6611 10.3882 16.4857 9.96445 16.1733 9.652L14.6063 8.08416C14.4198 7.89763 14.1985 7.74967 13.9548 7.64871C13.7112 7.54776 13.45 7.4958 13.1863 7.4958C12.9226 7.4958 12.6614 7.54776 12.4178 7.64871C12.1742 7.74967 11.9528 7.89763 11.7663 8.08416L10.3418 9.50871C10.0293 9.82107 9.60562 9.99654 9.16382 9.99654C8.72201 9.99654 8.2983 9.82107 7.98585 9.50871C7.67349 9.19626 7.49802 8.77255 7.49802 8.33075C7.49802 7.88894 7.67349 7.46523 7.98585 7.15278L10.3376 4.85183" stroke="var(--stroke-0, #4A4A4A)" stroke-width="1.66615" stroke-linecap="round" stroke-linejoin="round"/>
</g>
<defs>
<clipPath id="clip0_13_1649">
<rect width="19.9938" height="19.9938" fill="white"/>
</clipPath>
</defs>
</svg>
