<svg preserveAspectRatio="none" width="100%" height="100%" overflow="visible" style="display: block;" viewBox="0 0 40 40" fill="none" xmlns="http://www.w3.org/2000/svg">
<g id="Icon">
<path id="Vector" d="M18.361 4.68986C18.4324 4.30754 18.6353 3.96224 18.9345 3.71375C19.2337 3.46527 19.6104 3.32925 19.9993 3.32925C20.3882 3.32925 20.7649 3.46527 21.0641 3.71375C21.3633 3.96224 21.5661 4.30754 21.6376 4.68986L23.3892 13.9529C23.5136 14.6114 23.8336 15.2172 24.3075 15.6911C24.7814 16.165 25.3872 16.485 26.0457 16.6094L35.3087 18.361C35.6911 18.4324 36.0363 18.6353 36.2848 18.9345C36.5333 19.2337 36.6693 19.6104 36.6693 19.9993C36.6693 20.3882 36.5333 20.7649 36.2848 21.0641C36.0363 21.3633 35.6911 21.5662 35.3087 21.6376L26.0457 23.3892C25.3872 23.5136 24.7814 23.8336 24.3075 24.3075C23.8336 24.7814 23.5136 25.3872 23.3892 26.0458L21.6376 35.3088C21.5661 35.6911 21.3633 36.0364 21.0641 36.2849C20.7649 36.5333 20.3882 36.6694 19.9993 36.6694C19.6104 36.6694 19.2337 36.5333 18.9345 36.2849C18.6353 36.0364 18.4324 35.6911 18.361 35.3088L16.6094 26.0458C16.485 25.3872 16.165 24.7814 15.6911 24.3075C15.2171 23.8336 14.6114 23.5136 13.9528 23.3892L4.68983 21.6376C4.30752 21.5662 3.96222 21.3633 3.71373 21.0641C3.46524 20.7649 3.32922 20.3882 3.32922 19.9993C3.32922 19.6104 3.46524 19.2337 3.71373 18.9345C3.96222 18.6353 4.30752 18.4324 4.68983 18.361L13.9528 16.6094C14.6114 16.485 15.2171 16.165 15.6911 15.6911C16.165 15.2172 16.485 14.6114 16.6094 13.9529L18.361 4.68986Z" stroke="var(--stroke-0, #C9A0A0)" stroke-width="3.33321" stroke-linecap="round" stroke-linejoin="round"/>
<path id="Vector_2" d="M33.3321 3.33321V9.99964" stroke="var(--stroke-0, #C9A0A0)" stroke-width="3.33321" stroke-linecap="round" stroke-linejoin="round"/>
<path id="Vector_3" d="M36.6654 6.66643H29.9989" stroke="var(--stroke-0, #C9A0A0)" stroke-width="3.33321" stroke-linecap="round" stroke-linejoin="round"/>
<path id="Vector_4" d="M6.66643 36.6654C8.50731 36.6654 9.99964 35.173 9.99964 33.3321C9.99964 31.4913 8.50731 29.9989 6.66643 29.9989C4.82555 29.9989 3.33321 31.4913 3.33321 33.3321C3.33321 35.173 4.82555 36.6654 6.66643 36.6654Z" stroke="var(--stroke-0, #C9A0A0)" stroke-width="3.33321" stroke-linecap="round" stroke-linejoin="round"/>
</g>
</svg>
