<svg preserveAspectRatio="none" width="100%" height="100%" overflow="visible" style="display: block;" viewBox="0 0 40 40" fill="none" xmlns="http://www.w3.org/2000/svg">
<g id="Icon">
<path id="Vector" d="M3.33321 15.8328C3.33325 13.9782 3.89585 12.1672 4.94671 10.6391C5.99757 9.11091 7.48726 7.93747 9.21902 7.27373C10.9508 6.60999 12.8431 6.48717 14.6462 6.92148C16.4492 7.3558 18.0781 8.32683 19.3176 9.70631C19.405 9.79966 19.5105 9.87409 19.6278 9.92497C19.745 9.97585 19.8715 10.0021 19.9993 10.0021C20.1271 10.0021 20.2536 9.97585 20.3708 9.92497C20.4881 9.87409 20.5936 9.79966 20.6809 9.70631C21.9166 8.31786 23.5459 7.33867 25.3518 6.89908C27.1578 6.45949 29.0548 6.58033 30.7904 7.24554C32.5259 7.91074 34.0178 9.08875 35.0673 10.6228C36.1168 12.1568 36.6742 13.9741 36.6654 15.8328C36.6654 19.6493 34.1654 22.4992 31.6655 24.9991L22.5125 33.8538C22.202 34.2104 21.8191 34.497 21.3893 34.6943C20.9595 34.8916 20.4927 34.9952 20.0198 34.9981C19.5469 35.0011 19.0787 34.9035 18.6465 34.7116C18.2142 34.5198 17.8277 34.2382 17.5127 33.8854L8.33304 24.9991C5.83313 22.4992 3.33321 19.666 3.33321 15.8328Z" fill="var(--fill-0, #C9A0A0)" stroke="var(--stroke-0, #C9A0A0)" stroke-width="3.33321" stroke-linecap="round" stroke-linejoin="round"/>
</g>
</svg>
