<svg preserveAspectRatio="none" width="100%" height="100%" overflow="visible" style="display: block;" viewBox="0 0 20 20" fill="none" xmlns="http://www.w3.org/2000/svg">
<g id="Icon" clip-path="url(#clip0_13_1602)">
<path id="Vector" d="M9.99689 2.49922C10.5523 4.72075 11.663 6.52575 13.3292 7.9142C14.9953 9.30266 15.8284 10.83 15.8284 12.4961C15.8284 14.0427 15.214 15.526 14.1204 16.6196C13.0268 17.7132 11.5435 18.3276 9.99689 18.3276C8.45027 18.3276 6.967 17.7132 5.87338 16.6196C4.77976 15.526 4.16537 14.0427 4.16537 12.4961C4.16537 11.5948 4.45769 10.7179 4.99844 9.99689C4.99844 10.5493 5.21787 11.079 5.60845 11.4696C5.99903 11.8601 6.52877 12.0796 7.08113 12.0796C7.63349 12.0796 8.16323 11.8601 8.55381 11.4696C8.94439 11.079 9.16382 10.5493 9.16382 9.99689C9.16382 8.33074 7.9142 7.49767 7.9142 5.83152C7.9142 4.72075 8.60843 3.60999 9.99689 2.49922Z" stroke="var(--stroke-0, #4A4A4A)" stroke-width="1.66615" stroke-linecap="round" stroke-linejoin="round"/>
</g>
<defs>
<clipPath id="clip0_13_1602">
<rect width="19.9938" height="19.9938" fill="white"/>
</clipPath>
</defs>
</svg>
