<svg preserveAspectRatio="none" width="100%" height="100%" overflow="visible" style="display: block;" viewBox="0 0 16 16" fill="none" xmlns="http://www.w3.org/2000/svg">
<g id="Icon" clip-path="url(#clip0_14_1802)">
<path id="Vector" d="M7.68096 1.52953C7.71017 1.47053 7.75529 1.42086 7.81122 1.38613C7.86716 1.3514 7.93169 1.333 7.99753 1.333C8.06337 1.333 8.1279 1.3514 8.18384 1.38613C8.23978 1.42086 8.28489 1.47053 8.3141 1.52953L9.85362 4.6479C9.95504 4.85315 10.1048 5.03072 10.2899 5.16537C10.4751 5.30003 10.6901 5.38774 10.9166 5.42099L14.3596 5.92483C14.4248 5.93429 14.4861 5.9618 14.5365 6.00427C14.5869 6.04675 14.6244 6.10248 14.6448 6.16516C14.6652 6.22785 14.6676 6.29499 14.6519 6.35899C14.6361 6.42299 14.6027 6.48129 14.5555 6.52731L12.0656 8.95189C11.9014 9.11191 11.7785 9.30943 11.7076 9.52746C11.6367 9.7455 11.6198 9.9775 11.6584 10.2035L12.2462 13.6291C12.2577 13.6943 12.2507 13.7614 12.2259 13.8228C12.2011 13.8842 12.1595 13.9374 12.1059 13.9763C12.0524 14.0152 11.9889 14.0383 11.9229 14.0429C11.8568 14.0475 11.7908 14.0334 11.7324 14.0023L8.65466 12.3842C8.45187 12.2777 8.22625 12.222 7.9972 12.222C7.76815 12.222 7.54253 12.2777 7.33974 12.3842L4.26269 14.0023C4.20427 14.0333 4.13833 14.0472 4.07239 14.0425C4.00644 14.0378 3.94314 14.0147 3.88967 13.9758C3.83621 13.9369 3.79473 13.8838 3.76995 13.8225C3.74517 13.7612 3.7381 13.6942 3.74952 13.6291L4.33667 10.2042C4.37546 9.97806 4.35865 9.74591 4.28771 9.52774C4.21677 9.30958 4.09382 9.11194 3.92946 8.95189L1.43957 6.52798C1.39198 6.48202 1.35826 6.42361 1.34224 6.35941C1.32623 6.29522 1.32856 6.22782 1.34899 6.16489C1.36941 6.10195 1.40709 6.04602 1.45775 6.00346C1.50841 5.96091 1.57 5.93343 1.63551 5.92417L5.07777 5.42099C5.30454 5.388 5.51989 5.3004 5.7053 5.16573C5.89071 5.03106 6.04061 4.85335 6.14211 4.6479L7.68096 1.52953Z" fill="var(--fill-0, #C9A0A0)" stroke="var(--stroke-0, #C9A0A0)" stroke-width="1.33292" stroke-linecap="round" stroke-linejoin="round"/>
</g>
<defs>
<clipPath id="clip0_14_1802">
<rect width="15.995" height="15.995" fill="white"/>
</clipPath>
</defs>
</svg>
