<svg preserveAspectRatio="none" width="100%" height="100%" overflow="visible" style="display: block;" viewBox="0 0 20 20" fill="none" xmlns="http://www.w3.org/2000/svg">
<g id="Icon" clip-path="url(#clip0_13_1673)">
<path id="Vector" d="M1.7178 10.2868C1.64837 10.0998 1.64837 9.89401 1.7178 9.70697C2.39401 8.06736 3.54183 6.66545 5.01575 5.67898C6.48967 4.6925 8.22331 4.16588 9.99689 4.16588C11.7705 4.16588 13.5041 4.6925 14.978 5.67898C16.452 6.66545 17.5998 8.06736 18.276 9.70697C18.3454 9.89401 18.3454 10.0998 18.276 10.2868C17.5998 11.9264 16.452 13.3283 14.978 14.3148C13.5041 15.3013 11.7705 15.8279 9.99689 15.8279C8.22331 15.8279 6.48967 15.3013 5.01575 14.3148C3.54183 13.3283 2.39401 11.9264 1.7178 10.2868Z" stroke="var(--stroke-0, #4A4A4A)" stroke-width="1.66615" stroke-linecap="round" stroke-linejoin="round"/>
<path id="Vector_2" d="M9.99689 12.4961C11.3772 12.4961 12.4961 11.3772 12.4961 9.99689C12.4961 8.61661 11.3772 7.49767 9.99689 7.49767C8.61661 7.49767 7.49767 8.61661 7.49767 9.99689C7.49767 11.3772 8.61661 12.4961 9.99689 12.4961Z" stroke="var(--stroke-0, #4A4A4A)" stroke-width="1.66615" stroke-linecap="round" stroke-linejoin="round"/>
</g>
<defs>
<clipPath id="clip0_13_1673">
<rect width="19.9938" height="19.9938" fill="white"/>
</clipPath>
</defs>
</svg>
