<svg preserveAspectRatio="none" width="100%" height="100%" overflow="visible" style="display: block;" viewBox="0 0 24 24" fill="none" xmlns="http://www.w3.org/2000/svg">
<g id="Icon">
<path id="Vector" d="M11.9963 2.99907C12.6627 5.6649 13.9956 7.8309 15.995 9.49704C17.9944 11.1632 18.9941 12.996 18.9941 14.9953C18.9941 16.8513 18.2568 18.6312 16.9445 19.9435C15.6321 21.2559 13.8522 21.9932 11.9963 21.9932C10.1403 21.9932 8.36041 21.2559 7.04806 19.9435C5.73571 18.6312 4.99844 16.8513 4.99844 14.9953C4.99844 13.9138 5.34922 12.8615 5.99813 11.9963C5.99813 12.6591 6.26144 13.2948 6.73014 13.7635C7.19883 14.2322 7.83452 14.4955 8.49736 14.4955C9.16019 14.4955 9.79588 14.2322 10.2646 13.7635C10.7333 13.2948 10.9966 12.6591 10.9966 11.9963C10.9966 9.99689 9.49704 8.9972 9.49704 6.99782C9.49704 5.6649 10.3301 4.33199 11.9963 2.99907Z" stroke="var(--stroke-0, #C9A0A0)" stroke-width="1.99938" stroke-linecap="round" stroke-linejoin="round"/>
</g>
</svg>
