<svg preserveAspectRatio="none" width="100%" height="100%" overflow="visible" style="display: block;" viewBox="0 0 20 20" fill="none" xmlns="http://www.w3.org/2000/svg">
<g id="Icon" clip-path="url(#clip0_13_1645)">
<path id="Vector" d="M9.632 2.72081C9.66796 2.6555 9.72078 2.60104 9.78497 2.56311C9.84915 2.52518 9.92233 2.50517 9.99689 2.50517C10.0714 2.50517 10.1446 2.52518 10.2088 2.56311C10.273 2.60104 10.3258 2.6555 10.3618 2.72081L12.821 7.38936C12.8797 7.49746 12.9615 7.59123 13.0607 7.66395C13.1599 7.73667 13.2739 7.78653 13.3947 7.80994C13.5154 7.83335 13.6398 7.82975 13.759 7.79938C13.8782 7.769 13.9891 7.71262 14.0839 7.63428L17.647 4.5819C17.7154 4.52626 17.7997 4.49377 17.8877 4.48909C17.9758 4.48441 18.063 4.50779 18.1369 4.55586C18.2108 4.60393 18.2676 4.67421 18.299 4.75658C18.3304 4.83896 18.3349 4.92918 18.3118 5.01426L15.9509 13.5499C15.9027 13.7246 15.7989 13.8788 15.6551 13.9891C15.5114 14.0995 15.3356 14.16 15.1544 14.1614H4.84016C4.65883 14.1601 4.48286 14.0998 4.33897 13.9894C4.19509 13.879 4.09114 13.7247 4.04291 13.5499L1.68281 5.01509C1.65969 4.93001 1.66416 4.83979 1.69559 4.75742C1.72701 4.67504 1.78376 4.60476 1.85767 4.55669C1.93158 4.50862 2.01883 4.48525 2.10688 4.48992C2.19492 4.4946 2.2792 4.5271 2.3476 4.58273L5.90982 7.63511C6.00463 7.71346 6.1156 7.76984 6.23478 7.80021C6.35395 7.83058 6.47837 7.83419 6.59911 7.81077C6.71985 7.78736 6.8339 7.7375 6.93308 7.66478C7.03227 7.59207 7.11412 7.49829 7.17276 7.39019L9.632 2.72081Z" stroke="var(--stroke-0, #4A4A4A)" stroke-width="1.66615" stroke-linecap="round" stroke-linejoin="round"/>
<path id="Vector_2" d="M4.16537 17.4946H15.8284" stroke="var(--stroke-0, #4A4A4A)" stroke-width="1.66615" stroke-linecap="round" stroke-linejoin="round"/>
</g>
<defs>
<clipPath id="clip0_13_1645">
<rect width="19.9938" height="19.9938" fill="white"/>
</clipPath>
</defs>
</svg>
