<svg preserveAspectRatio="none" width="100%" height="100%" overflow="visible" style="display: block;" viewBox="0 0 20 20" fill="none" xmlns="http://www.w3.org/2000/svg">
<g id="Icon" clip-path="url(#clip0_13_1677)">
<path id="Vector" d="M16.6615 10.83C16.6615 14.9953 13.7457 17.078 10.2801 18.286C10.0987 18.3475 9.90153 18.3445 9.72197 18.2776C6.24806 17.078 3.3323 14.9953 3.3323 10.83V4.99844C3.3323 4.77749 3.42007 4.5656 3.5763 4.40937C3.73253 4.25313 3.94443 4.16536 4.16537 4.16536C5.83152 4.16536 7.9142 3.16567 9.36375 1.8994C9.54024 1.74861 9.76476 1.66577 9.99689 1.66577C10.229 1.66577 10.4535 1.74861 10.63 1.8994C12.0879 3.17401 14.1623 4.16536 15.8284 4.16536C16.0494 4.16536 16.2612 4.25313 16.4175 4.40937C16.5737 4.5656 16.6615 4.77749 16.6615 4.99844V10.83Z" stroke="var(--stroke-0, #4A4A4A)" stroke-width="1.66615" stroke-linecap="round" stroke-linejoin="round"/>
</g>
<defs>
<clipPath id="clip0_13_1677">
<rect width="19.9938" height="19.9938" fill="white"/>
</clipPath>
</defs>
</svg>
